<?xml version="1.0" encoding="UTF-8"?>
<svg id="Ebene_1" data-name="Ebene 1" xmlns="http://www.w3.org/2000/svg" viewBox="0 0 1000 89.69">
  <path d="M0,89.69V0h12.81v89.69H0ZM12.81,0h51.25s0,12.81,0,12.81H12.81V0ZM12.81,38.44h38.44v12.81H12.81v-12.81Z"/>
  <path d="M74.58,89.69V25.62h12.81v64.06h-12.81ZM87.39,25.62v-12.81h12.81v12.81h-12.81ZM87.39,64.06h12.81v12.81h-12.81s0-12.81,0-12.81ZM100.21,12.81V0h12.81v12.81h-12.81ZM100.21,51.25h12.81v12.81h-12.81v-12.81ZM113.02,25.62v-12.81h12.81v12.81h-12.81ZM113.02,38.44h12.81v12.81h-12.81v-12.81ZM125.83,89.69V25.62h12.81v64.06h-12.81Z"/>
  <path d="M149.16,89.69V0h12.81v89.69h-12.81ZM161.98,12.81V0h38.44v12.81h-38.44ZM161.98,51.25v-12.81h38.44v12.81h-38.44ZM161.98,89.69v-12.81h38.44v12.81h-38.44ZM200.41,38.44V12.81h12.81v25.62h-12.81ZM200.41,76.87v-25.62h12.81v25.62h-12.81ZM200.41,76.87v-25.62h12.81v25.62h-12.81Z"/>
  <path d="M224.02,0h64.06v12.81h-64.06V0ZM224.02,76.87h64.06v12.81h-64.06v-12.81ZM249.64,76.87V12.81h12.81v64.06h-12.81Z"/>
  <path d="M298.6,89.69V0h12.81v89.69h-12.81ZM311.41,12.81V0h51.25v12.81h-51.25ZM311.41,51.25v-12.81h38.44v12.81h-38.44ZM311.41,89.69v-12.81h51.25v12.81h-51.25Z"/>
  <path d="M373.18,89.69V0h12.81v89.69h-12.81ZM386,25.62v-12.81h12.81v12.81h-12.81ZM398.81,38.44v-12.81h12.81v12.81h-12.81ZM411.62,51.25v-12.81h12.81v12.81h-12.81ZM424.43,89.69V0h12.81v89.69h-12.81Z"/>
  <path d="M488.45,12.82h12.81v25.62h-12.81V12.82ZM488.45,64.06h12.81v12.81h-12.81v-12.81ZM501.26,0h38.44v12.81h-38.44V0ZM501.26,51.25v-12.81h38.44v12.81h-38.44ZM501.26,76.87h38.44v12.81h-38.44v-12.81ZM539.69,12.81h12.81v12.81h-12.81v-12.81ZM539.69,51.26h12.81s0,25.61,0,25.61h-12.81v-25.61Z"/>
  <path d="M563.03,0h64.06v12.81h-64.06V0ZM588.65,89.69V12.81h12.81v76.87h-12.81Z"/>
  <path d="M637.61,0h51.25s0,12.81,0,12.81h-51.25V0ZM637.61,89.69V12.81h12.81v76.87h-12.81ZM650.42,38.44h38.44v12.81h-38.44v-12.81ZM676.05,51.25h12.81v12.81h-12.81v-12.81ZM688.86,12.81h12.81v25.61h-12.81s0-25.61,0-25.61ZM688.86,64.06h12.81v25.62h-12.81v-25.62Z"/>
  <path d="M712.19,89.69V25.62h12.81v64.06h-12.81ZM725.01,25.62v-12.81h12.81v12.81h-12.81ZM725.01,64.06h12.81v12.81h-12.81s0-12.81,0-12.81ZM737.82,12.81V0h12.81v12.81h-12.81ZM737.82,51.25h12.81v12.81h-12.81v-12.81ZM750.63,25.62v-12.81h12.81v12.81h-12.81ZM750.63,38.44h12.81v12.81h-12.81v-12.81ZM763.44,89.69V25.62h12.81v64.06h-12.81Z"/>
  <path d="M786.78,76.87V0h12.81v76.87h-12.81ZM799.59,76.87h38.44v12.81h-38.44v-12.81ZM838.02,76.87V0h12.81v76.87h-12.81Z"/>
  <path d="M861.36,12.82h12.81v25.62h-12.81V12.82ZM861.36,64.06h12.81v12.81h-12.81v-12.81ZM874.17,0h38.44v12.81h-38.44V0ZM874.17,51.25v-12.81h38.44v12.81h-38.44ZM874.17,76.87h38.44v12.81h-38.44v-12.81ZM912.61,12.81h12.81v12.81h-12.81v-12.81ZM912.61,51.26h12.81s0,25.61,0,25.61h-12.81v-25.61Z"/>
  <path d="M935.94,12.82h12.81v25.62h-12.81V12.82ZM935.94,64.06h12.81v12.81h-12.81v-12.81ZM948.75,0h38.44v12.81h-38.44V0ZM948.75,51.25v-12.81h38.44v12.81h-38.44ZM948.75,76.87h38.44v12.81h-38.44v-12.81ZM987.19,12.81h12.81v12.81h-12.81v-12.81ZM987.19,51.26h12.81s0,25.61,0,25.61h-12.81v-25.61Z"/>
</svg>