<?xml version="1.0" encoding="utf-8"?>
<!-- Generator: Adobe Illustrator 27.5.0, SVG Export Plug-In . SVG Version: 6.00 Build 0)  -->
<svg version="1.1" id="Layer_1" xmlns="http://www.w3.org/2000/svg" xmlns:xlink="http://www.w3.org/1999/xlink" x="0px" y="0px"
	 viewBox="0 0 3000 3000" style="enable-background:new 0 0 3000 3000;" xml:space="preserve">
<g>
	<path style="fill:#010101;" d="M1307.214,1525.667h246.543l-0.056,123.722l-248.457,0.112l-0.225,204.496l-122.99-0.225
		l-0.113-657.618c0,0,354.279-0.45,531.363,0.394c0.675,0.788,2.814,3.152,2.814,3.152l0.45,122.146l-408.935,0.281
		L1307.214,1525.667z"/>
	<polygon style="fill:#010101;" points="1716.544,1362.825 1716.262,1812.119 1716.262,1948.169 1591.02,1948.169 1591.02,1873.924 
		1590.908,1873.924 1590.908,1812.626 1351.401,1812.795 1351.344,1687.666 1591.358,1687.497 1591.189,1487.729 1348.755,1485.309 
		1348.98,1362.713 	"/>
	<polygon points="2022.246,926.984 2022.246,2073.016 1591.02,2073.016 1591.02,1948.169 1897.398,1948.169 1897.398,1051.831 
		1001.061,1051.831 1001.061,1948.169 1551.281,1948.169 1551.281,2073.016 876.214,2073.016 876.214,926.984 	"/>
</g>
</svg>
